# xmcd CD database file
#
# Track frame offsets:
#	150
#	16583
#	35929
#	50077
#	66751
#	86199
#	108382
#	131051
#	146264
#	165433
#	200091
#	225326
#	237001
#
# Disc length: 3382 seconds
#
# Revision: 0
# Processed by: cddbd v1.5.2PL0 Copyright (c) Steve Scherf et al.
# Submitted via: CDex 1.70beta2
#
DISCID=ad0d340d
DTITLE=The rockin'johnny band - Now's the time
DYEAR=2010
DGENRE=Blues
TTITLE0=Pink Champagne
TTITLE1=Now's the Time
TTITLE2=Guess I'll Walk Alone
TTITLE3=Hot Sauce
TTITLE4=War Boy
TTITLE5=I'm Gonna Build me a Playhouse
TTITLE6=Pico
TTITLE7=Hippie Dance
TTITLE8=Chicago Woman
TTITLE9=A Man and the Blues
TTITLE10=Little red Rooster
TTITLE11=The Chaser
TTITLE12=Sweet Love
EXTD=YEAR: 2010
EXTT0=
EXTT1=
EXTT2=
EXTT3=
EXTT4=
EXTT5=
EXTT6=
EXTT7=
EXTT8=
EXTT9=
EXTT10=
EXTT11=
EXTT12=
PLAYORDER=
